# xmcd CD database file
#
# Track frame offsets:
#	150
#	11708
#	23983
#	40626
#	53277
#	68300
#	81718
#	93906
#	103816
#	116397
#	128189
#	139600
#	153153
#	163293
#	175184
#	187266
#	197918
#	207304
#	220569
#	230935
#
# Disc length: 3265 seconds
#
# Revision: 0
# Processed by: cddbd v1.5.2PL0 Copyright (c) Steve Scherf et al.
# Submitted via: CDex 1.51
#
DISCID=140cbf14
DTITLE=Johnny Cash - The Album
DYEAR=1900
DGENRE=Country
TTITLE0=Ring Of Fire
TTITLE1=I Walk The Line
TTITLE2=Ghostriders In The Sky
TTITLE3=Folsom Prison Blues
TTITLE4=A Boy Named Sue
TTITLE5=Don't Take Your Guns To Town
TTITLE6=Understand Your Man
TTITLE7=Ballad Of A Teenage Queen
TTITLE8=The On On The Right Is On The Left
TTITLE9=So Doggone Lonesome
TTITLE10=Big River
TTITLE11=It Ain't Me, Babe
TTITLE12=The Ways Of A Woman In Love
TTITLE13=Home Of The Blues
TTITLE14=You're Th Nearest Thing To Heaven
TTITLE15=Train Of Love
TTITLE16=I Got Stripes
TTITLE17=Tennessee Flat-Top Box
TTITLE18=Bonanza
TTITLE19=Orange Blossom Special
EXTD=
EXTT0=
EXTT1=
EXTT2=
EXTT3=
EXTT4=
EXTT5=
EXTT6=
EXTT7=
EXTT8=
EXTT9=
EXTT10=
EXTT11=
EXTT12=
EXTT13=
EXTT14=
EXTT15=
EXTT16=
EXTT17=
EXTT18=
EXTT19=
PLAYORDER=
